<svg id="Filled" height="512" viewBox="0 0 512 512" width="512" xmlns="http://www.w3.org/2000/svg"><path d="m448 24v432a32 32 0 0 1 -32 32h-288v-464z" fill="#e9eef2"/><path d="m416 488h-320a32 32 0 0 1 -32-32v-32h320v32a32 32 0 0 0 32 32z" fill="#dadcde"/><path d="m208 24h160v160h-160z" fill="#a3d4f7"/><circle cx="256" cy="136" fill="#3397e8" r="16"/><circle cx="320" cy="120" fill="#3397e8" r="16"/><path d="m448 16h-320a8 8 0 0 0 -8 8v392h-56a8 8 0 0 0 -8 8v32a40.045 40.045 0 0 0 40 40h320a40.045 40.045 0 0 0 40-40v-432a8 8 0 0 0 -8-8zm-232 16h144v144h-144zm-120 448a24.028 24.028 0 0 1 -24-24v-24h304v24a39.792 39.792 0 0 0 8.019 24zm344-24a24 24 0 0 1 -48 0v-32a8 8 0 0 0 -8-8h-248v-384h64v152a8 8 0 0 0 8 8h160a8 8 0 0 0 8-8v-152h64z"/><path d="m340.923 49.694a7.988 7.988 0 0 0 -6.863-1.455l-64 16a8 8 0 0 0 -6.06 7.761v41.376a24 24 0 1 0 16 22.624v-57.754l48-12v31.13a24 24 0 1 0 16 22.624v-64a8 8 0 0 0 -3.077-6.306zm-84.923 94.306a8 8 0 1 1 8-8 8.009 8.009 0 0 1 -8 8zm64-16a8 8 0 1 1 8-8 8.009 8.009 0 0 1 -8 8z"/><path d="m248 224h80a8 8 0 0 0 0-16h-80a8 8 0 0 0 0 16z"/><path d="m368 240h-160a8 8 0 0 0 0 16h160a8 8 0 0 0 0-16z"/><path d="m360 280a8 8 0 0 0 -8-8h-128a8 8 0 0 0 0 16h128a8 8 0 0 0 8-8z"/><path d="m248 320a8 8 0 0 0 0 16h80a8 8 0 0 0 0-16z"/><path d="m368 352h-160a8 8 0 0 0 0 16h160a8 8 0 0 0 0-16z"/><path d="m352 384h-128a8 8 0 0 0 0 16h128a8 8 0 0 0 0-16z"/></svg>